<svg xmlns="http://www.w3.org/2000/svg" xmlns:xlink="http://www.w3.org/1999/xlink" viewBox="0 0 433.65 433.38"><defs><style>.cls-1{isolation:isolate;}.cls-2{fill:#e6ba40;}.cls-13,.cls-14,.cls-15,.cls-17,.cls-3,.cls-5{fill:none;}.cls-10,.cls-12,.cls-13,.cls-3,.cls-5,.cls-6,.cls-7,.cls-9{stroke:#534317;}.cls-10,.cls-12,.cls-13,.cls-14,.cls-15,.cls-17,.cls-3,.cls-5,.cls-6,.cls-7,.cls-9{stroke-miterlimit:10;}.cls-3{stroke-width:10px;}.cls-12,.cls-4{fill:#534317;}.cls-6{fill:#838e5b;}.cls-11,.cls-7{fill:#c5b896;}.cls-8{fill:#e6d9b7;}.cls-9{fill:#ffe499;}.cls-10{fill:#d8461f;}.cls-13,.cls-17{stroke-width:0.75px;}.cls-14,.cls-15,.cls-17{stroke:#f7e8a6;}.cls-14{stroke-width:0.5px;}.cls-16{fill:#f7e8a6;}.cls-18{opacity:0.44;mix-blend-mode:overlay;fill:url(#未命名漸層_107);}</style><linearGradient id="未命名漸層_107" x1="86.41" y1="376.64" x2="520.06" y2="376.64" gradientUnits="userSpaceOnUse"><stop offset="0" stop-color="#e6c74d"/><stop offset="0.24" stop-color="#ffffa6"/><stop offset="0.43" stop-color="#e6c74d"/><stop offset="0.62" stop-color="#e6c74d"/><stop offset="0.81" stop-color="#e6e89b"/><stop offset="1" stop-color="#e6c74d"/></linearGradient></defs><g class="cls-1"><g id="圖層_5" data-name="圖層 5"><path class="cls-2" d="M302.83,182.65c-116.91,0-211.69,94.77-211.69,211.69S185.92,606,302.83,606s211.69-94.78,211.69-211.69S419.75,182.65,302.83,182.65Zm.41,214.08a4.09,4.09,0,1,1,4.08-4.08A4.09,4.09,0,0,1,303.24,396.73Z" transform="translate(-86.41 -176.21)"/></g><g id="棕色"><circle class="cls-3" cx="216.83" cy="216.69" r="211.69"/><path class="cls-4" d="M332.76,322.16a135.1,135.1,0,0,1,16.34.51c5.44.47,10.86,1.21,16.24,2.18A175,175,0,0,1,397,333.78a152.62,152.62,0,0,1,54.86,36.32,140.07,140.07,0,0,1,10.81,12.65l4.92,6.73,4.46,7a158.39,158.39,0,0,1,14,30.23,161.93,161.93,0,0,1,7.72,65.84l-7.15-.61c.38-5.3.48-10.61.38-15.92-.12-2.66-.17-5.32-.42-8-.11-1.32-.18-2.65-.32-4l-.45-4a156.66,156.66,0,0,0-6.79-31.1A153.43,153.43,0,0,0,466.18,400l-4.13-6.83-4.59-6.53a147.27,147.27,0,0,0-10-12.47,149.18,149.18,0,0,0-23.91-21.24,164.86,164.86,0,0,0-28-15.85,178.18,178.18,0,0,0-30.67-10.26A169.65,169.65,0,0,0,332.76,322.16Z" transform="translate(-86.41 -176.21)"/><path class="cls-4" d="M332.76,322.16A67.56,67.56,0,0,1,352,326.85a85.1,85.1,0,0,1,17.52,9.49c10.93,7.69,19.87,18,26.79,29.46a145.08,145.08,0,0,1,15.18,37,222.47,222.47,0,0,1,6.31,39.54c.23,3.34.35,6.68.53,10l.13,2.51c0,.93,0,1.72,0,2.58,0,1.67-.07,3.35-.13,5q-.36,10-1.32,20a324.42,324.42,0,0,1-6.18,39.59q-2.19,9.81-5.11,19.48a202.45,202.45,0,0,1-6.88,19.05c-.67,1.56-1.29,3.13-2,4.66l-2.18,4.61-2.38,4.53c-.77,1.52-1.69,3-2.53,4.46a121.48,121.48,0,0,1-11.92,16.85l-7.45-6.51a113.1,113.1,0,0,0,11.22-15.26c.81-1.37,1.69-2.69,2.44-4.11l2.31-4.2,2.14-4.3c.73-1.43,1.35-2.92,2-4.37q4-8.81,7.07-18T403,520.22a317.72,317.72,0,0,0,7.08-38.5c.79-6.49,1.41-13,1.82-19.52.11-1.63.19-3.26.26-4.89l.08-2.37,0-2.44c-.07-3.26-.07-6.53-.18-9.79a217.34,217.34,0,0,0-4.82-38.82,141,141,0,0,0-13.52-36.57,95.85,95.85,0,0,0-25.13-29.66,84.87,84.87,0,0,0-16.85-10.06A67.37,67.37,0,0,0,332.76,322.16Z" transform="translate(-86.41 -176.21)"/><path class="cls-4" d="M334.12,322.16a172.71,172.71,0,0,1,33.56,7.11q8.2,2.55,16.15,5.85c5.28,2.22,10.5,4.59,15.55,7.32a160.4,160.4,0,0,1,14.74,8.83c2.41,1.55,4.68,3.3,7,5,1.15.87,2.26,1.78,3.38,2.66s2.26,1.77,3.33,2.73a141.7,141.7,0,0,1,23.38,25.12A177.69,177.69,0,0,1,479.55,449a137.39,137.39,0,0,1,3.52,34.18,120.33,120.33,0,0,1-1.71,17.15A82.35,82.35,0,0,1,476.74,517l-.91-.41a81.19,81.19,0,0,0,4.61-16.39,121.1,121.1,0,0,0,1.76-17,136,136,0,0,0-3.39-34,177.08,177.08,0,0,0-28-62.13,142.31,142.31,0,0,0-23.23-25.13c-1.06-.95-2.18-1.84-3.3-2.73s-2.23-1.8-3.36-2.66c-2.32-1.67-4.58-3.43-7-5a158.5,158.5,0,0,0-14.68-8.87c-5-2.74-10.23-5.13-15.5-7.36s-10.66-4.19-16.12-5.91A173,173,0,0,0,334.12,322.16Z" transform="translate(-86.41 -176.21)"/><path class="cls-4" d="M334.12,322.16a127.14,127.14,0,0,1,17.16,3.55,170.53,170.53,0,0,1,47.78,21.53,158.46,158.46,0,0,1,48.51,49.95,159.77,159.77,0,0,1,23.3,100.86,156.56,156.56,0,0,1-2.76,17.35,115.36,115.36,0,0,1-4.93,16.9l-.92-.39a115.38,115.38,0,0,0,4.93-16.71A157.1,157.1,0,0,0,470,498a159.06,159.06,0,0,0-22.87-100.5,157.88,157.88,0,0,0-48.21-50,168.66,168.66,0,0,0-31.05-16.1,164.22,164.22,0,0,0-16.6-5.58A125.23,125.23,0,0,0,334.12,322.16Z" transform="translate(-86.41 -176.21)"/><path class="cls-4" d="M334.12,322.16a83.13,83.13,0,0,1,8.71,1.68c2.87.69,5.72,1.51,8.53,2.42a140.94,140.94,0,0,1,16.52,6.45,156.4,156.4,0,0,1,15.64,8.37,159.2,159.2,0,0,1,14.57,10.14c2.35,1.8,4.6,3.73,6.85,5.64,1.11,1,2.19,2,3.29,3s2.16,2,3.21,3.06a163.38,163.38,0,0,1,12,13.07c1.85,2.3,3.74,4.59,5.46,7,.87,1.19,1.79,2.36,2.62,3.58l2.51,3.67a164,164,0,0,1,9.13,15.23c11.05,21,16.67,44.67,17.3,68.34a190.31,190.31,0,0,1-2.35,35.44q-1.39,8.78-3.58,17.41a150.32,150.32,0,0,1-5.29,17l-.93-.38a147.78,147.78,0,0,0,5.31-16.85q2.19-8.56,3.61-17.32a189.2,189.2,0,0,0,2.45-35.26c-.56-23.58-6.08-47.15-17-68.1a162.19,162.19,0,0,0-9.05-15.22l-2.48-3.67c-.82-1.22-1.73-2.39-2.6-3.58-1.71-2.41-3.58-4.7-5.42-7a164.12,164.12,0,0,0-11.93-13.08c-1-1.05-2.1-2.09-3.2-3.07s-2.16-2-3.26-3c-2.25-1.92-4.48-3.86-6.82-5.67a152.88,152.88,0,0,0-30.09-18.6,143.24,143.24,0,0,0-16.48-6.52c-2.81-.91-5.65-1.74-8.52-2.44A80.59,80.59,0,0,0,334.12,322.16Z" transform="translate(-86.41 -176.21)"/><path class="cls-4" d="M340,322.87c22.38,7.12,43.21,19.8,59,37.37s25.94,39.88,30.4,63c1.16,5.78,2.12,11.6,2.8,17.45s1.2,11.72,1.54,17.59.48,11.77.54,17.66-.08,11.77-.33,17.65c-.45,11.76-1.4,23.5-2.75,35.19s-3.05,23.34-5.4,34.89l-1-.21c2.3-11.5,3.93-23.15,5.27-34.81s2.23-23.38,2.71-35.11c.26-5.86.33-11.73.35-17.6s-.17-11.74-.52-17.59-.79-11.71-1.52-17.53-1.61-11.62-2.76-17.37a171.73,171.73,0,0,0-4.37-17c-.95-2.77-1.85-5.56-3-8.26s-2.25-5.4-3.5-8a150.39,150.39,0,0,0-8.6-15.32c-1.59-2.46-3.21-4.89-5-7.22s-3.58-4.61-5.58-6.76a118.22,118.22,0,0,0-12.53-12.29,121.31,121.31,0,0,0-14.14-10.44A151.16,151.16,0,0,0,340,322.87Z" transform="translate(-86.41 -176.21)"/><path class="cls-4" d="M340,322.87a116.2,116.2,0,0,1,16.48,5.87,153.7,153.7,0,0,1,43.71,28.73,143,143,0,0,1,22.35,26.9,147,147,0,0,1,15.19,31.52,173.24,173.24,0,0,1,4.82,16.86c1.27,5.71,2.22,11.48,3,17.28a289.79,289.79,0,0,1,2.36,35,314.57,314.57,0,0,1-7.36,69.61l-1-.22A312.57,312.57,0,0,0,447.09,485a286.44,286.44,0,0,0-2.22-34.88c-.75-5.78-1.67-11.55-2.92-17.24s-2.86-11.3-4.74-16.81a146.66,146.66,0,0,0-15-31.49A143.31,143.31,0,0,0,400,357.65a151.85,151.85,0,0,0-28-20.91,154.27,154.27,0,0,0-15.59-7.94A116.22,116.22,0,0,0,340,322.87Z" transform="translate(-86.41 -176.21)"/><path class="cls-4" d="M373.16,339a94.11,94.11,0,0,1,11.8,10.6,133.25,133.25,0,0,1,10.27,12.11A146.81,146.81,0,0,1,411.4,389a164.21,164.21,0,0,1,14.25,61.58c.24,5.3.17,10.6,0,15.89l-.17,7.95c-.08,2.65-.25,5.29-.37,7.94s-.23,5.29-.42,7.93l-.62,7.92-.32,4-.43,3.95-.86,7.9A310.77,310.77,0,0,1,417,545.32l-.92,3.87L415,553c-.66,2.57-1.49,5.09-2.27,7.63s-1.71,5-2.7,7.5a65.09,65.09,0,0,1-3.31,7.29l-.86-.51a64.21,64.21,0,0,0,3.27-7.14c1-2.44,1.85-4.94,2.71-7.43s1.62-5,2.29-7.59l1.05-3.81.94-3.86a307.51,307.51,0,0,0,5.63-31.2l.9-7.88.44-3.94.33-4,.65-7.9c.21-2.64.3-5.29.46-7.93s.3-5.28.4-7.92l.2-7.94c.16-5.29.26-10.58,0-15.86a163.86,163.86,0,0,0-14-61.49,145.9,145.9,0,0,0-16-27.32,134.6,134.6,0,0,0-10.22-12.15A94.78,94.78,0,0,0,373.16,339Z" transform="translate(-86.41 -176.21)"/><path class="cls-4" d="M320.1,424.25a55.18,55.18,0,0,1-15.53,4.51,50.91,50.91,0,0,1-16.47-.3,45.52,45.52,0,0,1-8.06-2.25c-1.31-.5-2.58-1.1-3.88-1.65s-2.45-1.38-3.68-2.06a54.6,54.6,0,0,1-12.72-10.95,63.54,63.54,0,0,1-13.55-30.19,75.11,75.11,0,0,1,1.88-32.85l4.84,1.25a78.84,78.84,0,0,0-.89,30.59l.32,1.89.44,1.85c.33,1.24.56,2.5.95,3.71l1.19,3.62c.4,1.21,1,2.35,1.43,3.54a54.85,54.85,0,0,0,7.74,13,49.27,49.27,0,0,0,11.1,10.18,45.1,45.1,0,0,0,13.82,6.1C298.93,426.85,309.65,426.47,320.1,424.25Z" transform="translate(-86.41 -176.21)"/><path class="cls-4" d="M324.43,420.93A71.55,71.55,0,0,1,305.22,437a70.74,70.74,0,0,1-23.84,8.43,69.45,69.45,0,0,1-25.5-.54,62.7,62.7,0,0,1-23.67-10.26,52.71,52.71,0,0,1-9.68-8.84c-.71-.83-1.44-1.66-2.14-2.51l-1.89-2.69a53.58,53.58,0,0,1-3.43-5.61,64.52,64.52,0,0,1-7.36-25,73,73,0,0,1,13.84-49.34l7,5.05a67.15,67.15,0,0,0-12.65,43.64,57,57,0,0,0,5.89,22.19,44.72,44.72,0,0,0,2.86,5l1.59,2.4,1.81,2.24a47.88,47.88,0,0,0,8.21,8.07,56.23,56.23,0,0,0,21,10,67,67,0,0,0,23.55,1.51,69.56,69.56,0,0,0,42.19-21.16Z" transform="translate(-86.41 -176.21)"/><path class="cls-5" d="M317.46,425.53c-2.95,1.43-29.75,13.15-53,.09-24.09-13.54-35.12-49.43-19.85-82.77" transform="translate(-86.41 -176.21)"/><path class="cls-5" d="M315.62,426.38c-18.13,13-41.64,16-59.58,7.27-25.57-12.37-38.76-48.18-24.38-81.45" transform="translate(-86.41 -176.21)"/><path class="cls-5" d="M396.91,447.9S404,513.12,330,550.54c0,0-33.73,16.15-63.78,13,0,0-19.55-.56-25.32,6.34s-11.72,3.3-11.72,3.3a5.63,5.63,0,0,1-1.13-7c2.27-4.06,12.1-12.47,23.81-14.36,0,0,7.37-1.7,11.15.57s23.72,2.83,26.65,2.83,31.65-3.12,47.71-13.23,38-26.36,46.35-45.49,10.06-22.82,12.05-40.4c0,0,.38-3.78.56-8Z" transform="translate(-86.41 -176.21)"/><path class="cls-4" d="M227.29,567.45s-10,3.59-8.67-7.56c0,0,2.27-6.8,12.47-11.91a83.61,83.61,0,0,1,11-4.53s-4.87-11.34,8-9.64c0,0,26.64,10.21,54.14,7.8s53.29-17.72,62.93-29.48,21-27.93,24.23-42.38c0,0,2.55-10.44,3-12.66l1.51-1.91s-3.3,25.17-11.13,39-22,43.91-73.8,57.7c0,0-28.34,7.43-46.66,1a17.38,17.38,0,0,0-13.86-.83C242.39,554.84,232.84,558.43,227.29,567.45Z" transform="translate(-86.41 -176.21)"/><path class="cls-4" d="M393.72,459s-5.87,19.13-18.48,30.47-39.41,32.17-80.65,31.32c0,0-27.64-.71-39.83-10.91,0,0-9.07-5-10.91,0,0,0-3.26,8.36,7.09,13.75,0,0,30.19,10.34,57.12,6.37,0,0,24.09-1.57,44.36-13.23s34.09-30.54,38-43.45S393.72,459,393.72,459Z" transform="translate(-86.41 -176.21)"/><path class="cls-5" d="M396.35,448.11s-.28,29.39-46.2,54.14C306.09,526,257.78,491.8,254,489a3.44,3.44,0,0,1-.46-.38l-6.71-6.39s-7.18-8.13-11-1.89-.31,18.55,4.86,21.83c0,0,6.2,5,10.47,6.71" transform="translate(-86.41 -176.21)"/><path class="cls-4" d="M235.22,493.54s-10.5-8.06-12.2-17.41-.29-17.3,5.24-17.86,10.77,1.84,13.32,8.93c0,0,1.85,8.72,4.82,12.15l4.4,6.7-4-3.83-3.37-2.87L240.16,478l-2.54.46-2.46,3.19-.91,4.5.11,3.21Z" transform="translate(-86.41 -176.21)"/><path class="cls-4" d="M212.39,480.38s-5.82-5.31-9.08-1,.43,9.27,4.54,12.94,11.36,11.76,26.37,12.61,10.14,0,10.14,0l-2.49-2-3.41-3.26-.84-1.7a39,39,0,0,1-14-7.79C216.35,484.06,213.51,481.26,212.39,480.38Z" transform="translate(-86.41 -176.21)"/><path class="cls-4" d="M201.47,511.59s-10.91-2.58-6.94,9.32c0,0,1,4.82,6.94,6.1,0,0,10.63-2.27,19.7-4,0,0,20.61-2,25.69-2.29l-2.22-2.85-.79-1.82-.4-1.77Z" transform="translate(-86.41 -176.21)"/><path class="cls-4" d="M245.83,532.11s-19,2.83-33.16,18.14c0,0-8.08,4.54-11.34-5.24S213,532.11,213,532.11s17.45-6.38,30.41-6l.92,3Z" transform="translate(-86.41 -176.21)"/><path class="cls-5" d="M253.35,522.47s-14.91-1.28-8.52,7.72c0,0,4.42,5,6,5.75" transform="translate(-86.41 -176.21)"/><path class="cls-5" d="M213.09,548.27s-3.54,6-1,10.91,10.77,0,10.77,0" transform="translate(-86.41 -176.21)"/><path class="cls-5" d="M203.31,526.14s-10.34-.13-7.51,6c0,0,1.28,4.61,7.16,5.14l3.9-1.31" transform="translate(-86.41 -176.21)"/><path class="cls-5" d="M203.46,485.48s-3.12-2-5.39,2-5.95,12.9-1,19.42,6.38,6,6.38,6" transform="translate(-86.41 -176.21)"/><path class="cls-5" d="M223.35,465.78s-8.57-5.53-11.82,1-.35,15.17-.35,15.17" transform="translate(-86.41 -176.21)"/><path class="cls-4" d="M274.75,575.06s-7.51,1.27-5.39,7.65,20.13,0,20.13,0,14.17-7.09,20.27-17.58c0,0-8.08,7.23-19.28,8.08A129.46,129.46,0,0,0,274.75,575.06Z" transform="translate(-86.41 -176.21)"/><path class="cls-4" d="M334.7,562.47s-6,4.75-1,9.31,17.63-9.73,17.63-9.73,9-13,9.25-25.18c0,0-3.58,10.24-13,16.39A130.44,130.44,0,0,0,334.7,562.47Z" transform="translate(-86.41 -176.21)"/><path class="cls-4" d="M369.44,537.4s-3.67,5.9,1.82,8.12,12.11-13.86,12.11-13.86,3.85-13.84.59-24.09a33.51,33.51,0,0,1-6.27,17.93A126,126,0,0,0,369.44,537.4Z" transform="translate(-86.41 -176.21)"/><path class="cls-4" d="M292.37,483.53s-5.5-5.26-9.35.25,12,16.14,12,16.14,14.15,7.14,26.2,5.77c0,0-10.62-2.16-18-10.64A130.78,130.78,0,0,0,292.37,483.53Z" transform="translate(-86.41 -176.21)"/><path class="cls-4" d="M325.88,486.34s-6.42-2.55-7.4,2.93,15.8,9.26,15.8,9.26,14.06,1.52,23.19-3.08A34.41,34.41,0,0,1,339,492.28,133.16,133.16,0,0,0,325.88,486.34Z" transform="translate(-86.41 -176.21)"/><path class="cls-4" d="M387.94,460.3s-1.88,12.28-10.2,17.38-19.09,0-19.09,0-4.72-3.59,7-3S386.43,466,387.94,460.3Z" transform="translate(-86.41 -176.21)"/><path class="cls-4" d="M400.23,466.35s-4.93,7.93-4.35,17,4.35,11.58,4.35,11.58,5.67-.62,1.13-6.28S400.23,466.35,400.23,466.35Z" transform="translate(-86.41 -176.21)"/><path class="cls-4" d="M282.12,329.86l7.37-2.55s5.67,9.35,5.1,17.71l-7.37,2Z" transform="translate(-86.41 -176.21)"/><path class="cls-4" d="M304.51,324.76s1.42,15.73-1.27,19.27l11.48,2.13s4-13.75,1.7-22.11Z" transform="translate(-86.41 -176.21)"/><path class="cls-4" d="M332.76,328.72s-6.14,18.15-8.55,20.41l7.23,6s13.89-12.19,13.75-20Z" transform="translate(-86.41 -176.21)"/><path class="cls-4" d="M354.26,344s-10.2,14.46-17.57,18l4.25,10.21s17-6.52,21.26-18Z" transform="translate(-86.41 -176.21)"/><path class="cls-4" d="M344.2,382.16s22.53-9.5,24.52-13.61c0,0,6.52,7.51,6.52,17.43a73.11,73.11,0,0,1-30.05,8.37Z" transform="translate(-86.41 -176.21)"/><path class="cls-4" d="M345.19,403l-3.26,15.73s24.52,8.65,34.3,0c0,0,4.39-13.74,0-19.84C376.23,398.88,363.47,406.68,345.19,403Z" transform="translate(-86.41 -176.21)"/><path class="cls-4" d="M332.76,432.8s-9.54,10.06-12.66,11c0,0,18.14,16.63,34.73,18.19,0,0,12-11,13-18.19C367.87,443.76,348.54,445.18,332.76,432.8Z" transform="translate(-86.41 -176.21)"/><path class="cls-4" d="M390.26,418.16s-1.08-7.37,3.5-.57,8.14,20.59,3.38,26.17c0,0-3.9,2.74-5-6.89C392.1,436.87,390.37,419.86,390.26,418.16Z" transform="translate(-86.41 -176.21)"/><path class="cls-4" d="M392.67,403.56s-7,2.55-5.86-4.68c0,0,2.46-3.82,5,.71A3.63,3.63,0,0,1,392.67,403.56Z" transform="translate(-86.41 -176.21)"/><path class="cls-4" d="M314.57,476.69s-3.54-5.3-6.51-3.93-.87,6.59-.87,6.59,3.84,6.41,6.68,5,9.75-4.3,4.69-6.67Z" transform="translate(-86.41 -176.21)"/><path class="cls-4" d="M288.92,463.59s-1.84,4-1,5.87,3.83,1.22,5.1-2.93,2.41-6.14-1-7.55C292,459,288.21,460.13,288.92,463.59Z" transform="translate(-86.41 -176.21)"/><path class="cls-4" d="M270.68,473.86s-2.17-1.09-2.31,2,.57,8.33,5.81,8.69,5.95-7,5.53-8.69-3.74-3.7-5.63-.87S270.86,474.85,270.68,473.86Z" transform="translate(-86.41 -176.21)"/><path class="cls-4" d="M200.86,543.31s-35.91-8.3-66.52-81c0,0-13.33-26.51-8.65-83.65,0,0-3.25,48.1,5.72,62.51l5.39,8.17s11.14,32.31,26,50.64c0,0,22,28.29,33,32.13l3.08,3.83,4.08,1.31Z" transform="translate(-86.41 -176.21)"/><path class="cls-4" d="M211.35,426.66s7.13,25.94,20.88,31.75l-7.09,1.89s-11.9-8.8-18.85-32.7Z" transform="translate(-86.41 -176.21)"/><path class="cls-5" d="M195.31,522.41s-37.64-27.65-47.42-65.1" transform="translate(-86.41 -176.21)"/><path class="cls-5" d="M195.31,512.85s-32.08-27.36-37.73-52.55" transform="translate(-86.41 -176.21)"/><path class="cls-5" d="M195.31,502.82s-20.72-12.1-28.47-39.69" transform="translate(-86.41 -176.21)"/><path class="cls-5" d="M195.31,493.56s-13.28-8.11-20.49-27.3-1.74-38.66-1.74-38.66" transform="translate(-86.41 -176.21)"/><path class="cls-5" d="M198.07,487.46s-14.1-15.63-17-21.49" transform="translate(-86.41 -176.21)"/><path class="cls-5" d="M202.29,484.56s-14.63-16.89-17.39-21.43" transform="translate(-86.41 -176.21)"/><path class="cls-5" d="M205.16,477.93s-15.61-17.47-17.42-22.75" transform="translate(-86.41 -176.21)"/><path class="cls-5" d="M210,470.45s-15.69-11.52-21.67-38.8" transform="translate(-86.41 -176.21)"/><path class="cls-5" d="M213.15,464.71s-11.74-9.38-17.84-33.29" transform="translate(-86.41 -176.21)"/><path class="cls-5" d="M222.07,464.71s-14.26-10.59-20-35.09" transform="translate(-86.41 -176.21)"/></g><g id="小石"><path id="葉子2" class="cls-6" d="M187.25,439.89c-3-12.28-49.13-60.66-49.13-60.66l-12.43-34.4s-3.17,6.62,0,26.08c0,0,1.18,5.86,0,21.17s-1,44.6,11.11,57.26a39.26,39.26,0,0,0,16.06,10.39l14,3.4s5.1,1.14,6,2.27,9.64,3.21,13-4A34.88,34.88,0,0,0,187.25,439.89ZM182,452.51c-3.23,8.4-10.37,5.14-10.37,5.14-10-6.23,2.24-7.18,2.24-7.18A6.88,6.88,0,0,0,177,449c4.58-3.16,4.95.29,4.94,1.49C182,450.53,182,452.45,182,452.51Z" transform="translate(-86.41 -176.21)"/><path id="葉子1" class="cls-6" d="M149.3,286.58s-34.24,41.62-20.25,81.88c0,0,4.72,16.58,6.23,24.44s12.61,16.75,12.61,16.75,11.2,9.17,12.34,11.29,4.16,8.75,20.41,10.26,20.79-1.14,20.79-1.14,5.86-4.34,9.92-3.4,6.14-3,6.14-3-5.1,1.32-7.75-11.53-7.65-23.58-18.9-32.88-9.07-7-9.07-7Z" transform="translate(-86.41 -176.21)"/><path class="cls-5" d="M130.18,382.72s7.09,28.07,11.34,35.3" transform="translate(-86.41 -176.21)"/><path class="cls-5" d="M147.89,428.94a33.39,33.39,0,0,0,6,8.21c3.4,3.12,9.5,6,11.06,8.65" transform="translate(-86.41 -176.21)"/><path class="cls-5" d="M147.89,287.65s-8.08,31.44,0,52,15.88,40.11,15.88,40.11,5.39,11.62,15.17,19.84,11.62,8.79,13.6,9.5" transform="translate(-86.41 -176.21)"/><path class="cls-7" d="M156.07,274.72s-9.83,10.78-7.94,23.25c0,0,2.41,15.12,3.85,21.73s6.17,6.61,6.17,6.61,2.65-.56,4.72,8.79,11.72,30.71,18.9,37.14c0,0,2.27,1.89,10.21,1.51,0,0,12.47-.76,19.84-4.92s2.64-5.1,15.68-7,24.19-5.29,32.32-17.95,36.47-41.76,54.61-47.24a23.31,23.31,0,0,0,8.51-5.11c3.59-3.59,13.79-12.66,40.44-7.18,0,0,24,6.81,28.16,11.34s13.79,5.48,17.19,6.8,6.62,3.22,11.91,3.22,51.4,25.13,57.26,58.2c0,0,.38,8.79,4.72,9.88s5.48-8.74,1.32-18.19-18.33-34-18.33-34-4.15-11.53-5.1-16.44c0,0,0-10.21-8.12-20.22s-57.08-60.28-57.08-60.28.76-3.59-16.25-8.32-45.73-13.61-45.73-13.61-40.82-4.72-58.77,3.78-9.07,7.37-35.15,14.93-46.3,25.33-46.3,25.33S159.77,269.53,156.07,274.72Z" transform="translate(-86.41 -176.21)"/><path class="cls-6" d="M188.32,465.59s3.28-7.37,7.44,0-7.44,12.85-7.44,12.85-4.66,1.32-6.36-6.24c0,0-.19-2.43,2.65-1.78S188.32,465.59,188.32,465.59Z" transform="translate(-86.41 -176.21)"/><path class="cls-6" d="M222.59,427.23c1,1.66,3.36,2.13,4.54,1.32,1.71-1.17,1.35-5.28-.76-6.24a3.19,3.19,0,0,0-3.4.76A3.45,3.45,0,0,0,222.59,427.23Z" transform="translate(-86.41 -176.21)"/><path class="cls-4" d="M198.78,270.38s-3,2.83-1.61,4.06,3.12.76,4.82-2,7.66-1.94,9.83,1.09,5.29,7.56,5.29,7.56,2,4.06,0,7.27,3.31,5.2,3.31,5.2,5.67,1.56,5.48-5.88-7.37-17.46-17.58-19.73C208.32,267.92,201.52,267.83,198.78,270.38Z" transform="translate(-86.41 -176.21)"/><path class="cls-4" d="M243.85,312.05s-7.65-.48-10.11,2.08,2.93,2.45,4.35,2,6.89-2.55,10-.47,7.09,6.14,7.28,10.39-1.42,3.4,1.51,6.62,5.76-4.45,6.05-6.15.09-12-12-15.68C250.94,310.82,248.48,310,243.85,312.05Z" transform="translate(-86.41 -176.21)"/><path class="cls-5" d="M241.3,287.65s6.66,3.8,8.08,9.61" transform="translate(-86.41 -176.21)"/><path class="cls-8" d="M282.26,245.67s-17.29,3.68-15.87-1.13,12.18-5.82,14.45-6.1,8.36-5.24,8.93-6.24,16.58,0,16.58,0a4.11,4.11,0,0,0,3.83-3.68c.71-3.69.85-5.1.85-5.1l3.26,3.68s1.28,7.23,0,9.21L312,239.72s9.36,3.54,13.33,3.68a14.46,14.46,0,0,0,1.13,3.62c.85,1.77,2,4.89,2.69,6.16a23.6,23.6,0,0,1,1.42,4.25s-2.83-.28-4-2.41c0,0-10.49-7.65-16-4s-1.85,13.6-1.85,13.6,1.14,2.41-3.26,6.38-5,5-7.86,3,1.34-8.93,1.63-9.64,1.7-14.74-.14-17.29S282.26,245.67,282.26,245.67Z" transform="translate(-86.41 -176.21)"/><path class="cls-8" d="M263.48,240.35s-2.05-.56-1.77,1.92,0,2.12,1.77,2.19a3.72,3.72,0,0,0,2.82-1.13s1.41-3.12,0-4.53c0,0-2.68-.78-2.32,1.41S263.48,240.35,263.48,240.35Z" transform="translate(-86.41 -176.21)"/><path class="cls-9" d="M274.56,206.5s17.57,2.27,28.16,10.4,28.72,26.08,27.87,43.46S327,288.18,327,288.18l5.06-2.71s1.59-24.16,13.41-29.55c0,0,1.41-.38,2.07-4.35s16.63-10,16.63-10-30.23-25.32-41.76-26.65a4.85,4.85,0,0,0-4.44-.94s-9.45-7.84-16.82-7.47l-17.95,1Z" transform="translate(-86.41 -176.21)"/><path class="cls-10" d="M321.71,238.63s-4.16-4.91,1.13-4.72h6a.77.77,0,0,1,1,.67s9.26-3.59,15.78-3.78a32.07,32.07,0,0,1,4.49,0c1.84.19,11,7.84,11,7.84s-4.47,3.4-16.75,1.32S330,237.4,330,237.4s-1.13,3.12-3.3,4.06S321.71,238.63,321.71,238.63Z" transform="translate(-86.41 -176.21)"/><line class="cls-5" x1="243.02" y1="57.73" x2="243.61" y2="61.19"/><path class="cls-11" d="M319.35,304.58a5.66,5.66,0,0,0,3.59,5.11c3.59,1.32,2.64-2.27,2.45-3.6A3.64,3.64,0,0,1,328,302.5c1.51-.19,5.46-1.14-.76-5.24S319.35,304.58,319.35,304.58Z" transform="translate(-86.41 -176.21)"/><path class="cls-11" d="M333.71,296.46a1.81,1.81,0,0,1,1.89,1.7,1.77,1.77,0,0,1-1.14,1.7,1.9,1.9,0,0,1-2.45-1.51A1.81,1.81,0,0,1,333.71,296.46Z" transform="translate(-86.41 -176.21)"/><path class="cls-4" d="M486.54,386.6s-3.54-6.05,1.75-6.43,6.24,10.91,6.24,12.73,1.7,5.6,2.64,6.17,3.4,2.46,0,3.78h-1.32s1.13,7-1.89,8.88-3.21-6-2.65-9.26a17.86,17.86,0,0,0-2.45-12.6Z" transform="translate(-86.41 -176.21)"/><path class="cls-12" d="M331.52,285.62c6.33-2.56,16.12-4.08,31.11-1,0,0,24,6.8,28.15,11.34s13.8,5.48,17.2,6.8,6.61,3.22,11.91,3.22,51.4,25.13,57.25,58.2c0,0,.38,8.79,4.73,9.88s5.48-8.75,1.32-18.19-18.33-34-18.33-34-4.16-11.53-5.1-16.44c0,0,0-10.21-8.13-20.22s-57.07-60.29-57.07-60.29.76-3.59-16.25-8.31S332.58,203,332.58,203s-40.82-4.72-58.77,3.78c0,0,9.35.41,12.94.69s14.64-2.74,22.2.66,8.51,5.76,8.51,5.76,9.26,1.23,16.44,6,27.68,18.24,30.42,21.45c0,0-15.3,5.1-17,11,0,0,0,5-4,4.73S332.09,277.28,332,283.23Z" transform="translate(-86.41 -176.21)"/><path class="cls-13" d="M326,243.17s8.13-.38,12.57,5.1,8.69,5,8.69,5" transform="translate(-86.41 -176.21)"/><path class="cls-13" d="M317.46,213.87s5.1,1.89,5.38,7.37" transform="translate(-86.41 -176.21)"/><line class="cls-13" x1="238.51" y1="47.2" x2="234.36" y2="53.06"/><path class="cls-13" d="M322.46,217.56s6.52,3,2.74,3.68" transform="translate(-86.41 -176.21)"/><path class="cls-6" d="M163.06,324.61s-3.21-3.21,2.18-3.59,4.25,6.81,4,7.28-3.87,2.17-3.87-.76S163.06,324.61,163.06,324.61Z" transform="translate(-86.41 -176.21)"/></g><g id="圖層_4" data-name="圖層 4"><path class="cls-4" d="M303.24,357.14A35.77,35.77,0,1,0,339,392.9,35.76,35.76,0,0,0,303.24,357.14Zm0,39.59a4.09,4.09,0,1,1,4.08-4.08A4.09,4.09,0,0,1,303.24,396.73Z" transform="translate(-86.41 -176.21)"/><path class="cls-14" d="M336.16,392.6a33.07,33.07,0,1,1-33.07-33.07" transform="translate(-86.41 -176.21)"/><path class="cls-14" d="M273.15,392.65a30.09,30.09,0,1,1,30.09,30.08" transform="translate(-86.41 -176.21)"/><path class="cls-14" d="M303.24,420a27.13,27.13,0,1,1,27.12-27.13" transform="translate(-86.41 -176.21)"/><path class="cls-14" d="M303.24,368.9a24,24,0,1,1-24,24" transform="translate(-86.41 -176.21)"/><circle class="cls-14" cx="216.83" cy="216.43" r="20.86"/></g><g id="白色"><path class="cls-15" d="M367.35,291.35s20,7,27,12.85A64.85,64.85,0,0,0,420.26,314s14.17,2.27,21.54,11.53c0,0,10.77,10,16.44,17.2s9.26,11.9,9.26,11.9" transform="translate(-86.41 -176.21)"/><path class="cls-15" d="M419.69,245.39s13,17.57,22.49,24.19,17,21.35,17,21.35,8.5,21.36,12.47,28.16" transform="translate(-86.41 -176.21)"/><path class="cls-15" d="M489.05,370.91s.19,6.62-4.92,6.24" transform="translate(-86.41 -176.21)"/><path class="cls-15" d="M481.68,388.49a13.22,13.22,0,0,1,4.15,9.26c0,5.67,1.89,5.29,1.89,5.29" transform="translate(-86.41 -176.21)"/><path class="cls-15" d="M368.67,245.81s17.39,13.61,28.72,15.5,15.88,6.61,15.88,6.61,13.23,5.67,17.38,7.18" transform="translate(-86.41 -176.21)"/><path class="cls-16" d="M390.4,253.75s-3.31-1.51-2.55-3.4,4.35,1.22,4.35,1.22l2.83,3.31s3.4.76,0,1.23-4-1.7-4-1.7S391.15,254.16,390.4,253.75Z" transform="translate(-86.41 -176.21)"/><path class="cls-16" d="M410.15,262.25s-5.86-4.25,0-3a3.81,3.81,0,0,1,2.36,2.08s5.4,1.55,0,2.17C412.51,263.48,412,263.82,410.15,262.25Z" transform="translate(-86.41 -176.21)"/><path class="cls-15" d="M318.78,309.4a11,11,0,0,1,2.93-11.9" transform="translate(-86.41 -176.21)"/><path class="cls-15" d="M322.65,311.39s3.69,1.13,3.31-3,2.93-2.93,2.93-2.93" transform="translate(-86.41 -176.21)"/><path class="cls-15" d="M333,301.75s5.58.94,3.78-4.25" transform="translate(-86.41 -176.21)"/><path class="cls-15" d="M154.13,272.17s1.28-6.09,30.33-26.5,35-23.1,39.83-24.52,21.69-9.64,25.23-11.91,14.46-5.1,21.12-5.67" transform="translate(-86.41 -176.21)"/><path class="cls-15" d="M206.86,269.91s10.06,1.27,15.16,9.78" transform="translate(-86.41 -176.21)"/><path class="cls-15" d="M245.55,313.13s5.67-4.53,12.47,4.11" transform="translate(-86.41 -176.21)"/><path class="cls-15" d="M122.81,323s-4.53,36.19-3.68,59.43" transform="translate(-86.41 -176.21)"/><path class="cls-15" d="M126.5,449.91s15.59,47.62,31.74,61.51" transform="translate(-86.41 -176.21)"/><path class="cls-15" d="M199.15,547a9.64,9.64,0,0,0,2.91,4.26" transform="translate(-86.41 -176.21)"/><path class="cls-15" d="M206.86,554.83s-.67,3.71,4.32,6.56" transform="translate(-86.41 -176.21)"/><path class="cls-15" d="M215.22,565.94s-1.05,3.36,5.86,4.53" transform="translate(-86.41 -176.21)"/><path class="cls-15" d="M227.29,575.2a7.77,7.77,0,0,0,9.28.75" transform="translate(-86.41 -176.21)"/><path class="cls-15" d="M254.34,568a168.32,168.32,0,0,1,27.21-2.06c15.88,0,59.57-10.59,79-33.07" transform="translate(-86.41 -176.21)"/><path class="cls-15" d="M307.19,571.23s-9.2,9.83-14.3,12.47" transform="translate(-86.41 -176.21)"/><path class="cls-15" d="M362.43,542.13s-2.83,12.81-7.18,19.26" transform="translate(-86.41 -176.21)"/><path class="cls-15" d="M385.27,535.94c5.82-17.72,1.54-22,1.54-22" transform="translate(-86.41 -176.21)"/><path class="cls-15" d="M389.27,551.3s-13.8,27.39-19.66,34.24" transform="translate(-86.41 -176.21)"/><path class="cls-15" d="M402.71,471.26s-4.51,8.19,0,14.49" transform="translate(-86.41 -176.21)"/><path class="cls-15" d="M387.94,425.15s1.11,13.23,1.88,16.82" transform="translate(-86.41 -176.21)"/><path class="cls-15" d="M385.27,397.37s4-4.15,7.69,0" transform="translate(-86.41 -176.21)"/><path class="cls-15" d="M384.35,463.59a18.81,18.81,0,0,1-11.52,9" transform="translate(-86.41 -176.21)"/><path class="cls-15" d="M340.7,489.86a25.38,25.38,0,0,0,15.5,3.7" transform="translate(-86.41 -176.21)"/><path class="cls-15" d="M312.19,471.83a9.49,9.49,0,0,0,6.37,4" transform="translate(-86.41 -176.21)"/><path class="cls-15" d="M287.7,458.19s5.95-3.94,7.84,2.11" transform="translate(-86.41 -176.21)"/><path class="cls-15" d="M275.31,472.54s4.54-2.15,5.49,1.31" transform="translate(-86.41 -176.21)"/><path class="cls-15" d="M234.22,456.93s9.72,2.05,11.61,14.9,16.63,19.65,16.63,19.65" transform="translate(-86.41 -176.21)"/><path class="cls-15" d="M218.5,426.66s12.22,17.39,34.89,21.45" transform="translate(-86.41 -176.21)"/><path class="cls-15" d="M326,422.1S312.12,452.66,259.44,449" transform="translate(-86.41 -176.21)"/><path class="cls-15" d="M334.12,433.08s12.06,9.08,30.58,8.89" transform="translate(-86.41 -176.21)"/><path class="cls-15" d="M346.18,404s19.09,4.9,30.05-5.12" transform="translate(-86.41 -176.21)"/><path class="cls-15" d="M344.2,382.16s16.82-3.69,24.52-13.61" transform="translate(-86.41 -176.21)"/><path class="cls-15" d="M336.69,362s9-3.37,17.57-18" transform="translate(-86.41 -176.21)"/><line class="cls-15" x1="246.36" y1="152.51" x2="238.59" y2="171.86"/><path class="cls-15" d="M246.86,525s-4.86,2.9,3.13,7.16" transform="translate(-86.41 -176.21)"/><path class="cls-15" d="M255.85,532.87s58.86,23,101.86-15.12" transform="translate(-86.41 -176.21)"/><path class="cls-15" d="M229.58,568.42s5.21-9.5,21.22-13.65" transform="translate(-86.41 -176.21)"/><path class="cls-15" d="M217,549.17s9.49-8.67,20.59-13.23" transform="translate(-86.41 -176.21)"/><path class="cls-15" d="M207.85,530.89s21.38-4.78,26.37-5.94" transform="translate(-86.41 -176.21)"/><path class="cls-15" d="M198.07,494.93s-2.87,7.37,2.79,12.64" transform="translate(-86.41 -176.21)"/><path class="cls-15" d="M206.86,509.43s23.67,4,32,3.42" transform="translate(-86.41 -176.21)"/><path class="cls-15" d="M199.15,491.48s.46-2.65,1.93-3" transform="translate(-86.41 -176.21)"/><path class="cls-15" d="M240.54,481.94s-8.88-2.93,0,14.83" transform="translate(-86.41 -176.21)"/><path class="cls-15" d="M243.36,499.8s19.29,14.83,34.7,16.95" transform="translate(-86.41 -176.21)"/><path class="cls-15" d="M211.53,475.86s-.58-8.8,5.14-8.57" transform="translate(-86.41 -176.21)"/><path class="cls-17" d="M145.11,463.13s7.94,20.51,11.34,24.33" transform="translate(-86.41 -176.21)"/><path class="cls-17" d="M193.6,528.76s-26-21.25-35.36-38.79" transform="translate(-86.41 -176.21)"/><path class="cls-17" d="M157.58,475.3s18.33,30.76,28.92,37.55" transform="translate(-86.41 -176.21)"/><path class="cls-17" d="M171.6,470.13s10.74,21.35,19.43,26.64" transform="translate(-86.41 -176.21)"/><line class="cls-17" x1="88.56" y1="273.69" x2="91.58" y2="280.72"/><path class="cls-17" d="M191,435.73s6.33,21.38,14.13,27.4" transform="translate(-86.41 -176.21)"/><path class="cls-17" d="M202.29,445.75a38,38,0,0,0,4.57,7.67" transform="translate(-86.41 -176.21)"/><line class="cls-17" x1="103.17" y1="278.97" x2="117.82" y2="297.99"/><path class="cls-17" d="M431.79,362s54.52,40.63,52.91,121" transform="translate(-86.41 -176.21)"/><path class="cls-17" d="M460.16,526.14s24.64-91.92-37.73-155.23" transform="translate(-86.41 -176.21)"/><path class="cls-17" d="M454.75,402s32,50.94,20.41,105.53" transform="translate(-86.41 -176.21)"/><path class="cls-17" d="M438.87,456.93s2,66.85-4,94.83" transform="translate(-86.41 -176.21)"/><path class="cls-17" d="M452.48,453.42s3.12,67.82-6.24,88.71" transform="translate(-86.41 -176.21)"/><path class="cls-17" d="M419,491.75s-7,62.19-23.2,85.71" transform="translate(-86.41 -176.21)"/><path class="cls-17" d="M425.56,420.94s3.68,19.52,3.39,49.19" transform="translate(-86.41 -176.21)"/><path class="cls-17" d="M415.35,378.66a146.4,146.4,0,0,1,19.56,48.94" transform="translate(-86.41 -176.21)"/><path class="cls-17" d="M384.35,340.2S407,352,414.91,363.73" transform="translate(-86.41 -176.21)"/><path class="cls-17" d="M390.15,337.16s25.2,10.13,33.42,17.5" transform="translate(-86.41 -176.21)"/><path class="cls-17" d="M225.73,406.25s5.79,25.24,36.73,32.43" transform="translate(-86.41 -176.21)"/><path class="cls-17" d="M254.62,425.15s13.17,12.68,39.67,8.41" transform="translate(-86.41 -176.21)"/><path class="cls-17" d="M274.08,425.15s8.17,5.19,20.55,4.64" transform="translate(-86.41 -176.21)"/><path class="cls-17" d="M234.22,363.73s-8.31,39.07,10.9,53.1" transform="translate(-86.41 -176.21)"/></g><g id="亮"><path class="cls-18" d="M294.29,367.3,107.22,301.56a217.31,217.31,0,0,0-4.87,174.49l191.94-67h21l187.53,70.12a217.16,217.16,0,0,0-19.15-205.13L319.91,367.6Z" transform="translate(-86.41 -176.21)"/></g></g></svg>