<svg width="26" height="26" viewBox="0 0 26 26" fill="none" xmlns="http://www.w3.org/2000/svg">
<path d="M17.0677 3.86808C17.2185 4.01907 17.4069 4.12711 17.6133 4.18104C17.8198 4.23497 18.037 4.23285 18.2424 4.17489C18.4478 4.11693 18.634 4.00524 18.7818 3.85133C18.9297 3.69742 19.0338 3.50685 19.0835 3.29929C19.208 2.78077 19.4686 2.30482 19.8382 1.92047C20.2078 1.53612 20.6732 1.25724 21.1864 1.11257C21.6997 0.967901 22.2422 0.96266 22.7581 1.09739C23.2741 1.23212 23.7448 1.50195 24.1217 1.87909C24.4987 2.25623 24.7684 2.72705 24.9029 3.24307C25.0375 3.75908 25.0321 4.30164 24.8872 4.81486C24.7424 5.32809 24.4634 5.79342 24.0789 6.16296C23.6945 6.53249 23.2185 6.79286 22.7 6.91725C22.4924 6.96693 22.3019 7.07107 22.148 7.21893C21.9941 7.36679 21.8824 7.55303 21.8244 7.75844C21.7665 7.96385 21.7644 8.181 21.8183 8.38751C21.8722 8.59401 21.9803 8.78239 22.1312 8.93324L24.1507 10.9516C24.4196 11.2206 24.633 11.54 24.7786 11.8914C24.9242 12.2429 24.9991 12.6196 24.9991 13C24.9991 13.3804 24.9242 13.7571 24.7786 14.1086C24.633 14.46 24.4196 14.7794 24.1507 15.0484L22.1312 17.068C21.9804 17.219 21.792 17.327 21.5855 17.3809C21.3791 17.4349 21.1619 17.4327 20.9565 17.3748C20.7511 17.3168 20.5649 17.2051 20.4171 17.0512C20.2692 16.8973 20.1651 16.7067 20.1154 16.4992C19.9908 15.9807 19.7303 15.5047 19.3607 15.1204C18.9911 14.736 18.5257 14.4571 18.0124 14.3125C17.4992 14.1678 16.9567 14.1625 16.4408 14.2973C15.9248 14.432 15.4541 14.7018 15.0771 15.079C14.7002 15.4561 14.4305 15.9269 14.296 16.443C14.1614 16.959 14.1668 17.5015 14.3117 18.0147C14.4565 18.528 14.7355 18.9933 15.1199 19.3628C15.5044 19.7324 15.9804 19.9927 16.4989 20.1171C16.7065 20.1668 16.897 20.2709 17.0509 20.4188C17.2048 20.5667 17.3165 20.7529 17.3744 20.9583C17.4324 21.1637 17.4345 21.3809 17.3806 21.5874C17.3267 21.7939 17.2186 21.9823 17.0677 22.1331L15.0482 24.1515C14.7793 24.4205 14.4599 24.6339 14.1085 24.7795C13.7571 24.9251 13.3804 25 13 25C12.6196 25 12.2429 24.9251 11.8915 24.7795C11.5401 24.6339 11.2207 24.4205 10.9518 24.1515L8.93234 22.1319C8.78151 21.9809 8.59314 21.8729 8.38665 21.819C8.18016 21.765 7.96303 21.7672 7.75763 21.8251C7.55224 21.8831 7.36602 21.9948 7.21817 22.1487C7.07031 22.3026 6.96618 22.4931 6.91651 22.7007C6.79196 23.2192 6.53145 23.6952 6.16182 24.0795C5.79218 24.4639 5.32678 24.7428 4.81355 24.8874C4.30032 25.0321 3.7578 25.0373 3.24187 24.9026C2.72594 24.7679 2.25524 24.4981 1.87825 24.1209C1.50127 23.7438 1.23161 23.2729 1.09707 22.7569C0.962517 22.2409 0.967938 21.6984 1.11277 21.1851C1.2576 20.6719 1.5366 20.2066 1.92105 19.837C2.3055 19.4675 2.78149 19.2071 3.30001 19.0827C3.50757 19.0331 3.69812 18.9289 3.85202 18.7811C4.00592 18.6332 4.1176 18.447 4.17555 18.2416C4.2335 18.0362 4.23563 17.819 4.1817 17.6125C4.12777 17.406 4.01975 17.2176 3.86877 17.0668L1.84934 15.0484C1.58035 14.7794 1.36698 14.46 1.2214 14.1086C1.07583 13.7571 1.0009 13.3804 1.0009 13C1.0009 12.6196 1.07583 12.2429 1.2214 11.8914C1.36698 11.54 1.58035 11.2206 1.84934 10.9516L3.86877 8.93204C4.0196 8.78104 4.20797 8.67301 4.41446 8.61908C4.62094 8.56515 4.83808 8.56727 5.04347 8.62523C5.24887 8.68318 5.43509 8.79487 5.58294 8.94879C5.7308 9.1027 5.83493 9.29326 5.8846 9.50083C6.00915 10.0193 6.26966 10.4953 6.63929 10.8796C7.00893 11.264 7.47432 11.5429 7.98756 11.6875C8.50079 11.8322 9.04331 11.8375 9.55924 11.7027C10.0752 11.568 10.5459 11.2982 10.9229 10.921C11.2998 10.5439 11.5695 10.0731 11.704 9.55705C11.8386 9.04103 11.8332 8.49848 11.6883 7.98526C11.5435 7.47203 11.2645 7.00669 10.8801 6.63716C10.4956 6.26763 10.0196 6.00726 9.50109 5.88286C9.29354 5.83319 9.10299 5.72905 8.94909 5.58119C8.79519 5.43332 8.68351 5.24709 8.62556 5.04168C8.56761 4.83627 8.56548 4.61911 8.61941 4.41261C8.67334 4.20611 8.78136 4.01772 8.93234 3.86688L10.9518 1.8485C11.2207 1.57949 11.5401 1.3661 11.8915 1.22052C12.2429 1.07493 12.6196 1 13 1C13.3804 1 13.7571 1.07493 14.1085 1.22052C14.4599 1.3661 14.7793 1.57949 15.0482 1.8485L17.0677 3.86808Z" stroke="#D9BD8B" stroke-width="2" stroke-linecap="round" stroke-linejoin="round"/>
</svg>
