<svg width="26" height="26" viewBox="0 0 26 26" fill="none" xmlns="http://www.w3.org/2000/svg">
<path d="M10.6 16.192V18.1432C10.5955 18.5543 10.4854 18.9574 10.2803 19.3138C10.0752 19.6702 9.78201 19.9679 9.4288 20.1784C8.67897 20.7338 8.06901 21.4564 7.64738 22.2888C7.22576 23.1212 7.00409 24.0405 7 24.9736M15.4 16.192V18.1432C15.4045 18.5543 15.5146 18.9574 15.7197 19.3138C15.9248 19.6702 16.218 19.9679 16.5712 20.1784C17.321 20.7338 17.931 21.4564 18.3526 22.2888C18.7742 23.1212 18.9959 24.0405 19 24.9736M20.2 9.4H22C22.7957 9.4 23.5587 9.08393 24.1213 8.52132C24.6839 7.95871 25 7.19565 25 6.4C25 5.60435 24.6839 4.84129 24.1213 4.27868C23.5587 3.71607 22.7957 3.4 22 3.4H20.2M20.2 9.4C20.2 11.3096 19.4414 13.1409 18.0912 14.4912C16.7409 15.8414 14.9096 16.6 13 16.6C11.0904 16.6 9.25909 15.8414 7.90883 14.4912C6.55857 13.1409 5.8 11.3096 5.8 9.4M20.2 9.4V2.2C20.2 1.88174 20.0736 1.57652 19.8485 1.35147C19.6235 1.12643 19.3183 1 19 1H7C6.68174 1 6.37652 1.12643 6.15147 1.35147C5.92643 1.57652 5.8 1.88174 5.8 2.2V9.4M3.4 25H22.6M5.8 9.4H4C3.20435 9.4 2.44129 9.08393 1.87868 8.52132C1.31607 7.95871 1 7.19565 1 6.4C1 5.60435 1.31607 4.84129 1.87868 4.27868C2.44129 3.71607 3.20435 3.4 4 3.4H5.8" stroke="#D9BD8B" stroke-width="2" stroke-linecap="round" stroke-linejoin="round"/>
</svg>
