<svg width="26" height="19" viewBox="0 0 26 19" fill="none" xmlns="http://www.w3.org/2000/svg">
<path d="M14.2 1V3.42857M14.2 15.5714V18M14.2 8.28571V10.7143M1 5.85714C1.95478 5.85714 2.87045 6.24094 3.54558 6.92411C4.22072 7.60728 4.6 8.53385 4.6 9.5C4.6 10.4661 4.22072 11.3927 3.54558 12.0759C2.87045 12.7591 1.95478 13.1429 1 13.1429V15.5714C1 16.2155 1.25286 16.8332 1.70294 17.2887C2.15303 17.7441 2.76348 18 3.4 18H22.6C23.2365 18 23.847 17.7441 24.2971 17.2887C24.7471 16.8332 25 16.2155 25 15.5714V13.1429C24.0452 13.1429 23.1295 12.7591 22.4544 12.0759C21.7793 11.3927 21.4 10.4661 21.4 9.5C21.4 8.53385 21.7793 7.60728 22.4544 6.92411C23.1295 6.24094 24.0452 5.85714 25 5.85714V3.42857C25 2.78447 24.7471 2.16676 24.2971 1.71131C23.847 1.25587 23.2365 1 22.6 1H3.4C2.76348 1 2.15303 1.25587 1.70294 1.71131C1.25286 2.16676 1 2.78447 1 3.42857V5.85714Z" stroke="#D9BD8B" stroke-width="2" stroke-linecap="round" stroke-linejoin="round"/>
</svg>
