<svg width="34" height="34" viewBox="0 0 34 34" fill="none" xmlns="http://www.w3.org/2000/svg">
<path d="M12.344 12.2C12.7202 11.1307 13.4626 10.229 14.4399 9.65461C15.4172 9.08025 16.5662 8.8703 17.6835 9.06194C18.8007 9.25358 19.8141 9.83444 20.5441 10.7016C21.2741 11.5689 21.6737 12.6664 21.672 13.8C21.672 17 16.872 18.6 16.872 18.6M17 25H17.016M33 17C33 25.8366 25.8366 33 17 33C8.16344 33 1 25.8366 1 17C1 8.16344 8.16344 1 17 1C25.8366 1 33 8.16344 33 17Z" stroke="#DFBC84" stroke-width="2" stroke-linecap="round" stroke-linejoin="round"/>
</svg>
