<svg width="34" height="34" viewBox="0 0 34 34" fill="none" xmlns="http://www.w3.org/2000/svg">
<path d="M12.2 12.2048C12.1991 11.9209 12.2739 11.6418 12.4165 11.3963C12.5591 11.1507 12.7645 10.9476 13.0116 10.8077C13.2587 10.6678 13.5386 10.5961 13.8225 10.6001C14.1064 10.6041 14.3841 10.6836 14.6272 10.8304L22.6224 15.6256C22.8604 15.7675 23.0575 15.9687 23.1944 16.2096C23.3313 16.4506 23.4032 16.7229 23.4032 17C23.4032 17.2771 23.3313 17.5494 23.1944 17.7904C23.0575 18.0313 22.8604 18.2325 22.6224 18.3744L14.6272 23.1696C14.384 23.3165 14.1061 23.396 13.8221 23.3999C13.538 23.4038 13.258 23.332 13.0109 23.1919C12.7638 23.0518 12.5584 22.8484 12.4159 22.6027C12.2734 22.3569 12.1989 22.0777 12.2 21.7936V12.2048Z" stroke="#DFBC84" stroke-width="2" stroke-linecap="round" stroke-linejoin="round"/>
<path d="M17 33C25.8366 33 33 25.8366 33 17C33 8.16344 25.8366 1 17 1C8.16344 1 1 8.16344 1 17C1 25.8366 8.16344 33 17 33Z" stroke="#DFBC84" stroke-width="2" stroke-linecap="round" stroke-linejoin="round"/>
</svg>
