<svg width="30" height="27" viewBox="0 0 30 27" fill="none" xmlns="http://www.w3.org/2000/svg">
<path opacity="0.4" d="M29.2913 0.325451C29.5123 0.465918 29.6908 0.644499 29.8135 0.847871C29.9363 1.05124 30 1.27416 30 1.49999V19.0011C30 19.0611 29.9956 19.1216 29.9869 19.1826C29.9956 19.2876 30 19.3936 30 19.5006C29.9994 20.4558 29.6189 21.386 28.9136 22.1567C28.2083 22.9274 27.2147 23.4985 26.0767 23.7875C24.9388 24.0765 23.7154 24.0683 22.5836 23.7641C21.4518 23.4599 20.4704 22.8755 19.7814 22.0954C19.0923 21.3154 18.7313 20.3802 18.7507 19.4251C18.7701 18.4701 19.1689 17.5448 19.8892 16.783C20.6096 16.0213 21.6142 15.4627 22.7578 15.1881C23.9013 14.9135 25.1244 14.9371 26.25 15.2555V9.39026L11.25 12.1909V22.5052C11.2486 23.4602 10.8674 24.3902 10.1616 25.1604C9.45585 25.9307 8.46206 26.5013 7.32406 26.7898C6.18605 27.0783 4.96283 27.0696 3.83138 26.7651C2.69993 26.4606 1.71892 25.8759 1.03028 25.0958C0.341634 24.3157 -0.0189242 23.3805 0.000765582 22.4256C0.0204554 21.4707 0.419372 20.5456 1.1398 19.784C1.86023 19.0225 2.86481 18.4641 4.0082 18.1896C5.1516 17.9151 6.3745 17.9387 7.5 18.2571V4.99961C7.49995 4.66094 7.64316 4.33222 7.90632 4.06695C8.16948 3.80167 8.5371 3.61544 8.94937 3.53856L27.6994 0.0389414C27.9719 -0.0117257 28.2551 -0.0129657 28.5283 0.0353124C28.8015 0.0835905 29.0577 0.180163 29.2781 0.317951L29.2913 0.325451Z" fill="#F2F2F2"/>
</svg>
