<svg width="51" height="51" viewBox="0 0 51 51" fill="none" xmlns="http://www.w3.org/2000/svg">
<path d="M26.7105 33.5388C25.5278 33.7896 24.3552 33.7958 23.1928 33.5574C22.0304 33.3189 20.9656 32.8611 19.9982 32.1837C19.0309 31.5064 18.242 30.6936 17.6313 29.7452C17.0207 28.7968 16.614 27.7474 16.4111 26.5968C16.3387 26.1864 16.2888 25.7832 16.2612 25.3869C16.2337 24.9907 16.2487 24.5962 16.3064 24.2036C16.3837 23.6822 16.2871 23.1916 16.0164 22.7316C15.7457 22.2716 15.3658 21.979 14.8766 21.8537C14.3481 21.7353 13.8663 21.8203 13.4314 22.1085C12.9965 22.3967 12.7396 22.8017 12.6607 23.3233C12.564 23.975 12.5191 24.6175 12.5259 25.251C12.5326 25.8844 12.5931 26.5296 12.7072 27.1864C12.9966 28.8277 13.5919 30.3415 14.4929 31.7278C15.394 33.1141 16.5194 34.2797 17.869 35.2247C19.1795 36.1783 20.6382 36.8307 22.2453 37.182C23.8524 37.5332 25.4589 37.5885 27.0648 37.3476L26.2029 38.5785C25.8988 39.0129 25.7901 39.4763 25.8769 39.9687C25.9637 40.4611 26.2243 40.8594 26.6588 41.1636C27.0932 41.4678 27.5566 41.5764 28.049 41.4896C28.5414 41.4028 28.9397 41.1422 29.2439 40.7078L32.4885 36.0739C32.8941 35.4947 33.039 34.8768 32.9232 34.2203C32.8075 33.5637 32.46 33.0327 31.8807 32.6271L27.2469 29.3825C26.8125 29.0783 26.3491 28.9696 25.8567 29.0564C25.3643 29.1432 24.966 29.4039 24.6618 29.8383C24.3576 30.2727 24.2489 30.7361 24.3358 31.2285C24.4226 31.7209 24.6832 32.1192 25.1176 32.4234L26.7105 33.5388ZM23.2517 16.4421C24.4416 16.2323 25.6286 16.2456 26.8127 16.4819C27.9967 16.7182 29.0712 17.1735 30.0363 17.8479C31.0014 18.5222 31.7904 19.335 32.4032 20.2864C33.0161 21.2378 33.4228 22.2872 33.6235 23.4348C33.6959 23.8452 33.7458 24.2485 33.7734 24.6447C33.8009 25.0409 33.7859 25.4354 33.7282 25.828C33.6509 26.3494 33.7501 26.8497 34.0258 27.3291C34.3016 27.8085 34.6826 28.112 35.1688 28.2395C35.6974 28.3578 36.1799 28.2727 36.6165 27.9842C37.053 27.6957 37.3091 27.2909 37.3848 26.7699C37.4814 26.1182 37.5253 25.4648 37.5164 24.8097C37.5075 24.1546 37.4445 23.4998 37.3274 22.8452C37.038 21.2039 36.4634 19.6873 35.6036 18.2954C34.7439 16.9036 33.6148 15.7166 32.2163 14.7345C30.8648 13.7882 29.3882 13.1499 27.7865 12.8196C26.1848 12.4894 24.5829 12.4647 22.9806 12.7456L23.8932 11.4423C24.1563 11.0151 24.2445 10.5553 24.1577 10.0629C24.0709 9.5705 23.8102 9.17221 23.3758 8.86802C22.9414 8.56384 22.478 8.45516 21.9856 8.54198C21.4932 8.62881 21.0949 8.88943 20.7907 9.32385L17.5461 13.9577C17.1405 14.5369 16.9956 15.1548 17.1113 15.8113C17.2271 16.4679 17.5746 16.9989 18.1538 17.4045L22.7877 20.6491C23.2221 20.9533 23.6855 21.062 24.1779 20.9752C24.6703 20.8884 25.0686 20.6277 25.3728 20.1933C25.677 19.7589 25.7856 19.2955 25.6988 18.8031C25.612 18.3107 25.3514 17.9124 24.9169 17.6082L23.2517 16.4421ZM29.3585 49.636C25.9527 50.2365 22.6381 50.1542 19.4145 49.389C16.191 48.6238 13.2762 47.3295 10.6699 45.506C8.06368 43.6825 5.85046 41.3861 4.03025 38.6168C2.21005 35.8475 0.999 32.7609 0.397114 29.357C-0.20477 25.9531 -0.122437 22.6385 0.644116 19.413C1.41067 16.1876 2.705 13.2727 4.52712 10.6684C6.34923 8.06411 8.64563 5.85089 11.4163 4.02875C14.187 2.20661 17.2736 0.995568 20.6761 0.395615C24.0786 -0.20434 27.3932 -0.122005 30.62 0.642617C33.8468 1.40724 36.7617 2.70157 39.3647 4.52562C41.9676 6.34966 44.1817 8.64592 46.0068 11.4144C47.8319 14.1828 49.0421 17.2696 49.6375 20.6746C50.2328 24.0796 50.1505 27.3943 49.3905 30.6186C48.6305 33.8428 47.3362 36.7577 45.5075 39.3632C43.6788 41.9686 41.3825 44.1827 38.6187 46.0053C35.8549 47.8279 32.7681 49.0382 29.3585 49.636Z" fill="#EFEBE9"/>
</svg>
